<mxfile host="6ff6bd9c-265c-4c21-9a68-4058c595cbc4" modified="2020-09-13T09:00:34.589Z" agent="5.0 (Macintosh; Intel Mac OS X 10_15_6) AppleWebKit/537.36 (KHTML, like Gecko) Code/1.48.2 Chrome/78.0.3904.130 Electron/7.3.2 Safari/537.36" etag="ugZTIlal2JfCA5MqAcu9" version="13.1.3">
    <diagram id="6hGFLwfOUW9BJ-s0fimq" name="Page-1">
        <mxGraphModel dx="1339" dy="818" grid="1" gridSize="10" guides="1" tooltips="1" connect="1" arrows="1" fold="1" page="1" pageScale="1" pageWidth="827" pageHeight="1169" math="0" shadow="0">
            <root>
                <mxCell id="0"/>
                <mxCell id="1" parent="0"/>
                <mxCell id="18" value="支付宝小程序" style="swimlane;html=1;startSize=20;horizontal=1;childLayout=treeLayout;horizontalTree=0;resizable=0;containerType=tree;" vertex="1" parent="1">
                    <mxGeometry x="380" y="220" width="776" height="300" as="geometry">
                        <mxRectangle x="380" y="260" width="100" height="20" as="alternateBounds"/>
                    </mxGeometry>
                </mxCell>
                <mxCell id="19" value="&lt;span style=&quot;font-weight: 700&quot;&gt;appx框架&lt;/span&gt;" style="whiteSpace=wrap;html=1;" vertex="1" parent="18">
                    <mxGeometry x="213.95" y="40" width="100" height="20" as="geometry"/>
                </mxCell>
                <mxCell id="20" value="appx render框架" style="whiteSpace=wrap;html=1;" vertex="1" parent="18">
                    <mxGeometry x="20" y="110" width="100" height="30" as="geometry"/>
                </mxCell>
                <mxCell id="21" value="" style="edgeStyle=elbowEdgeStyle;elbow=vertical;html=1;rounded=0;" edge="1" parent="18" source="19" target="20">
                    <mxGeometry relative="1" as="geometry"/>
                </mxCell>
                <mxCell id="22" value="appx worker框架" style="whiteSpace=wrap;html=1;" vertex="1" parent="18">
                    <mxGeometry x="407.9" y="110" width="100" height="30" as="geometry"/>
                </mxCell>
                <mxCell id="23" value="" style="edgeStyle=elbowEdgeStyle;elbow=vertical;html=1;rounded=0;" edge="1" parent="18" source="19" target="22">
                    <mxGeometry relative="1" as="geometry"/>
                </mxCell>
                <mxCell id="26" value="" style="edgeStyle=elbowEdgeStyle;elbow=vertical;html=1;rounded=0;" edge="1" target="27" source="20" parent="18">
                    <mxGeometry relative="1" as="geometry">
                        <mxPoint x="-161.5" y="340" as="sourcePoint"/>
                    </mxGeometry>
                </mxCell>
                <mxCell id="27" value="提供视图渲染能力" style="whiteSpace=wrap;html=1;" vertex="1" parent="18">
                    <mxGeometry x="20" y="190" width="100" height="30" as="geometry"/>
                </mxCell>
                <mxCell id="28" value="" style="edgeStyle=elbowEdgeStyle;elbow=vertical;html=1;rounded=0;" edge="1" target="29" source="22" parent="18">
                    <mxGeometry relative="1" as="geometry">
                        <mxPoint x="-161.5" y="340" as="sourcePoint"/>
                    </mxGeometry>
                </mxCell>
                <mxCell id="29" value="worker与render&lt;br&gt;通信" style="whiteSpace=wrap;html=1;" vertex="1" parent="18">
                    <mxGeometry x="160" y="190" width="90" height="30" as="geometry"/>
                </mxCell>
                <mxCell id="30" value="" style="edgeStyle=elbowEdgeStyle;elbow=vertical;html=1;rounded=0;" edge="1" target="31" source="22" parent="18">
                    <mxGeometry relative="1" as="geometry">
                        <mxPoint x="-91.5" y="430" as="sourcePoint"/>
                    </mxGeometry>
                </mxCell>
                <mxCell id="31" value="小程序框架" style="whiteSpace=wrap;html=1;" vertex="1" parent="18">
                    <mxGeometry x="441" y="190" width="78" height="20" as="geometry"/>
                </mxCell>
                <mxCell id="32" value="" style="edgeStyle=elbowEdgeStyle;elbow=vertical;html=1;rounded=0;" edge="1" target="33" source="22" parent="18">
                    <mxGeometry relative="1" as="geometry">
                        <mxPoint x="48.5" y="430" as="sourcePoint"/>
                    </mxGeometry>
                </mxCell>
                <mxCell id="33" value="JSApi" style="whiteSpace=wrap;html=1;" vertex="1" parent="18">
                    <mxGeometry x="679.8" y="190" width="76" height="20" as="geometry"/>
                </mxCell>
                <mxCell id="36" value="" style="edgeStyle=elbowEdgeStyle;elbow=vertical;html=1;rounded=0;" edge="1" target="37" source="31" parent="18">
                    <mxGeometry relative="1" as="geometry">
                        <mxPoint x="223.5" y="430" as="sourcePoint"/>
                    </mxGeometry>
                </mxCell>
                <mxCell id="37" value="App" style="whiteSpace=wrap;html=1;" vertex="1" parent="18">
                    <mxGeometry x="290" y="260" width="100" height="20" as="geometry"/>
                </mxCell>
                <mxCell id="38" value="" style="edgeStyle=elbowEdgeStyle;elbow=vertical;html=1;rounded=0;" edge="1" target="39" source="31" parent="18">
                    <mxGeometry relative="1" as="geometry">
                        <mxPoint x="223.5" y="520" as="sourcePoint"/>
                    </mxGeometry>
                </mxCell>
                <mxCell id="39" value="Page" style="whiteSpace=wrap;html=1;" vertex="1" parent="18">
                    <mxGeometry x="430" y="260" width="100" height="20" as="geometry"/>
                </mxCell>
                <mxCell id="40" value="" style="edgeStyle=elbowEdgeStyle;elbow=vertical;html=1;rounded=0;" edge="1" target="41" source="31" parent="18">
                    <mxGeometry relative="1" as="geometry">
                        <mxPoint x="419.50000000000017" y="520" as="sourcePoint"/>
                    </mxGeometry>
                </mxCell>
                <mxCell id="41" value="Component" style="whiteSpace=wrap;html=1;" vertex="1" parent="18">
                    <mxGeometry x="570" y="260" width="100" height="20" as="geometry"/>
                </mxCell>
            </root>
        </mxGraphModel>
    </diagram>
</mxfile>